<svg id="SvgjsSvg1011" width="288" height="288" xmlns="http://www.w3.org/2000/svg" version="1.1" xmlns:xlink="http://www.w3.org/1999/xlink" xmlns:svgjs="http://svgjs.com/svgjs"><defs id="SvgjsDefs1012"></defs><g id="SvgjsG1013"><svg xmlns="http://www.w3.org/2000/svg" viewBox="0 0 100 100" width="288" height="288"><path d="M70.709 15.029c1.17 2.657 1.928 7.07.797 10.301 4.625 3.949 6.215 13.549 3.982 21.394 6.592.503 14.444-.242 19.512 1.781-4.738-.609-11.209-1.804-17.32-1.388-1.157.079-2.873-.044-2.789 1.585 7.074.556 14.104 1.16 19.912 2.973-5.761-.94-12.754-2.374-19.912-2.574-2.957 5.835-8.908 8.704-17.123 9.308.883 1.921 2.574 2.652 2.987 5.744.616 4.617-.964 11.381.595 14.459.748 1.475 1.967 1.514 2.789 2.774-2.012 2.382-7-.267-7.568-2.774-.973-4.295 1.482-10.954-1.192-13.865.188 4.684-1.108 11.264.199 15.449.515 1.646 2.002 2.281 1.593 3.765-9.352.95-5.443-12.104-6.972-19.81-1.411.101-.791 2.113-.796 2.973-.04 7.523 1.54 17.844-6.57 16.837-.237-1.581 1.088-2.119 1.593-3.563 1.479-4.233-.277-10.541.401-15.65-3.095 2.333.325 10.48-1.593 14.656-1.105 2.404-4.666 3.451-7.367 2.376.352-1.788 2.2-1.5 2.984-3.167 1.096-2.325.008-5.674.399-9.111-5.729 1.143-10.173-.166-12.348-3.764-.973-1.615-1.214-3.521-2.39-4.951-1.17-1.432-3.04-1.625-3.582-3.564 7.095-1.707 7.367 7.303 13.739 7.525 1.954.07 2.97-.564 4.778-.989.506-2.272 1.589-3.966 3.186-5.153-7.93-1.086-14.478-3.556-17.523-9.506-7.208.355-13.804 1.317-19.913 2.771 5.545-2.014 12.384-2.736 19.715-2.973-.432-2.596-4.219-1.882-6.57-1.782-4.369.194-9.869.737-13.342 1.389 5.034-1.795 12.098-1.571 18.918-1.585-2.086-6.54-1.363-16.929 3.186-20.798-1.289-3.249-.889-8.563.796-11.093 5.079.228 8.159 2.443 11.35 4.557 3.957-1.125 8.118-1.685 13.54-1.387 2.28.126 4.651 1.151 6.369.989 1.685-.158 3.542-2.049 5.178-2.771 2.131-.941 3.934-1.3 6.372-1.388" fill="#ffffff" class="color000 svgShape"></path></svg></g></svg>